<svg width="146" height="146" viewBox="0 0 146 146" fill="none" xmlns="http://www.w3.org/2000/svg">
<rect width="146" height="146" rx="12" fill="url(#paint0_linear_5_58)"/>
<path d="M27.2667 50.1105L16.7921 30.1564C16.432 29.4705 16.9295 28.6475 17.7042 28.6475H44.4219C44.4219 28.6475 46.9205 28.7122 48.7945 30.2662C50.6685 31.8201 51.6055 33.8273 51.6055 33.8273L80.9886 90.573C81.1656 90.9149 81.5184 91.1295 81.9034 91.1295H91.4847C92.249 91.1295 92.7471 91.9325 92.4076 92.6172L81.589 114.439C81.589 114.439 79.4027 118 73.4685 118C67.5342 118 65.6603 114.439 65.6603 114.439L33.1532 51.2209C32.9767 50.8777 32.6231 50.6619 32.2371 50.6619H28.1789C27.796 50.6619 27.4447 50.4495 27.2667 50.1105Z" fill="url(#paint1_linear_5_58)"/>
<path d="M95.0192 33.8273L77.455 68.9617C77.3054 69.2609 77.3104 69.6142 77.4684 69.909L86.295 86.3774C86.4744 86.712 86.8233 86.9209 87.2029 86.9209H95.0095C95.3985 86.9209 95.7543 86.7018 95.9294 86.3544L113.473 51.552C113.648 51.2047 114.004 50.9856 114.393 50.9856H117.809C118.198 50.9856 118.554 50.7661 118.729 50.4182L129.249 29.4929C129.594 28.8078 129.096 28 128.329 28H103.223C103.168 28 103.113 28.0044 103.058 28.0142C102.673 28.0831 101.023 28.4021 100.016 28.9712C96.5808 30.9137 95.0192 33.8273 95.0192 33.8273Z" fill="url(#paint2_linear_5_58)"/>
<defs>
<linearGradient id="paint0_linear_5_58" x1="0" y1="0" x2="143.9" y2="148.041" gradientUnits="userSpaceOnUse">
<stop offset="0.201923" stop-color="#000E2D"/>
<stop offset="1" stop-color="#062254"/>
</linearGradient>
<linearGradient id="paint1_linear_5_58" x1="4.13151" y1="13.7554" x2="120.475" y2="106.774" gradientUnits="userSpaceOnUse">
<stop stop-color="#67A1FF"/>
<stop offset="0.644231" stop-color="#1553C9"/>
<stop offset="0.745192" stop-color="#1B63DF"/>
<stop offset="1" stop-color="#2074FD"/>
</linearGradient>
<linearGradient id="paint2_linear_5_58" x1="4.13151" y1="13.7554" x2="120.475" y2="106.774" gradientUnits="userSpaceOnUse">
<stop stop-color="#67A1FF"/>
<stop offset="0.644231" stop-color="#1553C9"/>
<stop offset="0.745192" stop-color="#1B63DF"/>
<stop offset="1" stop-color="#2074FD"/>
</linearGradient>
</defs>
</svg>
