<svg width="114" height="90" viewBox="0 0 114 90" fill="none" xmlns="http://www.w3.org/2000/svg">
<path d="M11.2667 22.1105L0.792095 2.15642C0.432023 1.47048 0.929501 0.647482 1.7042 0.647482H28.4219C28.4219 0.647482 30.9205 0.71223 32.7945 2.26619C34.6685 3.82014 35.6055 5.82734 35.6055 5.82734L64.9886 62.573C65.1656 62.9149 65.5184 63.1295 65.9034 63.1295H75.4847C76.249 63.1295 76.7471 63.9325 76.4076 64.6172L65.589 86.4389C65.589 86.4389 63.4027 90 57.4685 90C51.5342 90 49.6603 86.4389 49.6603 86.4389L17.1532 23.2209C16.9767 22.8777 16.6231 22.6619 16.2371 22.6619H12.1789C11.796 22.6619 11.4447 22.4495 11.2667 22.1105Z" fill="url(#paint0_linear_5_55)"/>
<path d="M79.0192 5.82734L61.455 40.9617C61.3054 41.2609 61.3104 41.6142 61.4684 41.909L70.295 58.3774C70.4744 58.712 70.8233 58.9209 71.2029 58.9209H79.0095C79.3985 58.9209 79.7543 58.7018 79.9294 58.3544L97.4734 23.552C97.6485 23.2047 98.0043 22.9856 98.3932 22.9856H101.809C102.198 22.9856 102.554 22.7661 102.729 22.4182L113.249 1.49286C113.594 0.807787 113.096 0 112.329 0H87.2235C87.1677 0 87.1126 0.00440708 87.0578 0.0142312C86.673 0.0831208 85.023 0.402119 84.0164 0.971235C80.5808 2.91368 79.0192 5.82734 79.0192 5.82734Z" fill="url(#paint1_linear_5_55)"/>
<defs>
<linearGradient id="paint0_linear_5_55" x1="-11.8685" y1="-14.2446" x2="104.475" y2="78.7741" gradientUnits="userSpaceOnUse">
<stop stop-color="#67A1FF"/>
<stop offset="0.644231" stop-color="#1553C9"/>
<stop offset="0.745192" stop-color="#1B63DF"/>
<stop offset="1" stop-color="#2074FD"/>
</linearGradient>
<linearGradient id="paint1_linear_5_55" x1="-11.8685" y1="-14.2446" x2="104.475" y2="78.7741" gradientUnits="userSpaceOnUse">
<stop stop-color="#67A1FF"/>
<stop offset="0.644231" stop-color="#1553C9"/>
<stop offset="0.745192" stop-color="#1B63DF"/>
<stop offset="1" stop-color="#2074FD"/>
</linearGradient>
</defs>
</svg>
